<?xml version="1.0" encoding="utf-8"?>
<!-- Generator: Adobe Illustrator 21.0.0, SVG Export Plug-In . SVG Version: 6.00 Build 0)  -->
<svg version="1.1" id="Capa_1" xmlns="http://www.w3.org/2000/svg" xmlns:xlink="http://www.w3.org/1999/xlink" x="0px" y="0px"
	 viewBox="0 0 140 140" style="enable-background:new 0 0 140 140;" xml:space="preserve">
<style type="text/css">
	.st0{fill:#FFFFFF;}
	.st1{fill:#383737;}
	.st2{fill:#1C1C1C;}
	.st3{fill:#29B8FF;}
	.st4{fill:#21F275;}
	.st5{fill:none;}
	.st6{clip-path:url(#SVGID_2_);}
	.st7{clip-path:url(#SVGID_2_);fill-rule:evenodd;clip-rule:evenodd;}
	.st8{clip-path:url(#SVGID_2_);fill-rule:evenodd;clip-rule:evenodd;fill:#21F275;}
	.st9{clip-path:url(#SVGID_4_);}
	.st10{clip-path:url(#SVGID_4_);fill-rule:evenodd;clip-rule:evenodd;}
	.st11{clip-path:url(#SVGID_4_);fill-rule:evenodd;clip-rule:evenodd;fill:#21F275;}
	.st12{clip-path:url(#SVGID_6_);}
	.st13{clip-path:url(#SVGID_6_);fill-rule:evenodd;clip-rule:evenodd;}
	.st14{clip-path:url(#SVGID_6_);fill-rule:evenodd;clip-rule:evenodd;fill:#21F275;}
	.st15{clip-path:url(#SVGID_8_);}
	.st16{clip-path:url(#SVGID_8_);fill-rule:evenodd;clip-rule:evenodd;}
	.st17{clip-path:url(#SVGID_8_);fill-rule:evenodd;clip-rule:evenodd;fill:#21F275;}
	.st18{clip-path:url(#SVGID_10_);}
	.st19{clip-path:url(#SVGID_10_);fill-rule:evenodd;clip-rule:evenodd;}
	.st20{clip-path:url(#SVGID_10_);fill-rule:evenodd;clip-rule:evenodd;fill:#21F275;}
</style>
<circle class="st1" cx="70" cy="70" r="68.5"/>
<g>
	<circle class="st2" cx="66.5" cy="71.1" r="61.3"/>
	<path d="M128.4,71.1c0,8.1-1.3,16.2-4,24c-1.3,3.9-3,7.7-5,11.4c-2,3.7-4.4,7.2-7.2,10.4c-5.5,6.5-12.6,11.8-20.5,15.3
		c-4,1.7-8.1,3-12.4,3.8c-4.3,0.8-8.6,1.1-12.9,0.9c-4.3-0.2-8.6-0.8-12.7-1.9c-4.1-1.1-8.1-2.6-11.9-4.5c-0.5-0.2-0.9-0.5-1.4-0.7
		l-1.4-0.7l-0.3-0.2l-0.3-0.2l-0.7-0.4l-1.4-0.8l-0.3-0.2l-0.3-0.2l-0.7-0.4l-1.3-0.9c-0.2-0.1-0.4-0.3-0.6-0.4l-0.6-0.5l-1.3-0.9
		c-3.3-2.5-6.4-5.2-9.3-8.2c-2.8-3-5.4-6.2-7.8-9.6c-2.3-3.4-4.3-7-6-10.8c-3.4-7.5-5.4-15.8-5.9-24.2C2,66.9,2.2,62.6,2.8,58.4
		l0-0.4l0.1-0.4L3,56.8l0.3-1.6c0.1-0.5,0.2-1,0.3-1.6L4,52.1c0.1-0.5,0.3-1,0.4-1.6L4.9,49c0.1-0.5,0.3-1,0.5-1.5L5.9,46
		c1.5-4,3.4-7.9,5.7-11.6c2.3-3.7,5-7.1,8-10.2c3-3.1,6.3-6,9.9-8.5c3.6-2.5,7.4-4.7,11.4-6.4c8-3.5,16.9-5.3,25.6-5.2
		C75.3,4.2,84,6,92,9.7c7.9,3.6,14.9,9,20.4,15.6c2.7,3.3,5.1,6.8,7.1,10.4c2,3.7,3.7,7.5,5,11.4C127.1,54.9,128.4,63,128.4,71.1z
		 M127.3,71.1c0-4-0.5-8-1.4-11.8c-0.9-3.9-2.3-7.6-4-11.1c-1.8-3.5-3.9-6.8-6.4-9.8c-2.4-3-5.2-5.7-8.1-8.1
		c-5.9-4.8-12.5-8.5-19.4-11c-3.5-1.3-7-2.2-10.6-2.9l-1.4-0.2L75.4,16l-0.3-0.1c-0.1,0-0.2,0-0.3,0c-0.9-0.1-1.8-0.2-2.7-0.3
		l-2.7-0.2l-2.7,0c-0.9,0-1.8,0.1-2.7,0.1c-0.9,0.1-1.8,0.1-2.7,0.2c-0.2,0-0.5,0-0.7,0.1l-0.7,0.1l-1.4,0.2c-0.1,0-0.2,0-0.3,0
		l-0.3,0.1L57,16.3l-1.3,0.2c-3.6,0.7-7.1,1.7-10.5,3c-6.8,2.7-13.1,6.6-18.5,11.7c-2.7,2.5-5.1,5.3-7.3,8.4c-2.2,3-4,6.2-5.6,9.6
		l-0.6,1.3c-0.2,0.4-0.4,0.8-0.6,1.3l-0.5,1.3c-0.2,0.4-0.4,0.9-0.5,1.3l-0.5,1.3c-0.1,0.4-0.3,0.9-0.4,1.3l-0.4,1.4l-0.2,0.7
		L10,59.5l-0.1,0.3c-1,3.7-1.6,7.4-1.8,11.3C7.8,74.9,8,78.8,8.6,82.6c0.6,3.8,1.5,7.6,2.9,11.3c2.8,7.3,7.2,14,12.9,19.4
		c2.8,2.7,6,5.1,9.3,7c0.8,0.5,1.7,1,2.5,1.4l1.3,0.6l0.6,0.3l0.3,0.2l0.3,0.1l1.3,0.6l0.7,0.3l0.3,0.1l0.3,0.1l1.4,0.5
		c0.5,0.2,0.9,0.3,1.4,0.5c3.6,1.2,7.4,2,11.1,2.5c3.7,0.5,7.5,0.6,11.2,0.4c7.5-0.4,14.8-1.9,21.7-4.6c6.9-2.7,13.5-6.5,19.3-11.3
		c2.9-2.4,5.7-5.2,8.1-8.2c2.4-3,4.6-6.3,6.4-9.8c1.8-3.5,3.1-7.3,4-11.1C126.9,79.1,127.3,75.1,127.3,71.1z"/>
</g>
<g>
	<path class="st3" d="M66,12.2c-20.8,0.3-39,11.3-49.5,27.6v64.6C27,120.8,45.2,131.7,66,132v0c33.1,0,59.9-26.8,59.9-59.9
		S99.1,12.2,66,12.2L66,12.2z"/>
	<path class="st4" d="M7.1,72.1c0,31.9,25.1,59.4,54.8,59.9c0,0,3.7-43.3,0-56.2c-5.8-20.2-16.5-33.2-12-45.9
		C55,15.6,63.3,12.2,63.3,12.2C22.1,12.2,7.1,45,7.1,72.1z"/>
</g>
<path d="M46.7,110.4c-2.6,0.9-5.2,1.7-7.9,2.2c-1.4,0.2-2.8,0.4-4.2,0.4c-0.7,0-1.4,0-2.2-0.1c-0.7-0.1-1.5-0.3-2.3-0.7
	c-0.4-0.2-0.8-0.4-1.1-0.7c-0.4-0.3-0.7-0.7-0.9-1.2c-0.2-0.4-0.4-0.9-0.4-1.4c-0.1-0.5-0.1-0.9,0-1.3c0.1-0.9,0.3-1.6,0.6-2.3
	c0.3-0.7,0.6-1.4,0.9-2c0.7-1.3,1.5-2.5,2.3-3.6c0.8-1.1,1.7-2.2,2.6-3.3c1.8-2.1,3.8-4.1,5.7-6c1-1,2-1.9,3-2.8
	c1-0.9,1.9-1.8,2.8-2.7c3.5-3.8,6.1-8.2,6.9-13.1c0.2-1.2,0.3-2.5,0.4-3.7c0-1.3,0-2.5-0.1-3.8c-0.2-2.5-0.8-5.1-1.4-7.7
	c-0.3-1.3-0.7-2.6-1-3.9l-1.1-3.9c-0.4-1.3-0.7-2.7-1-4c-0.3-1.4-0.6-2.8-0.8-4.2c-0.2-1.4-0.3-2.9-0.3-4.4c0-1.5,0.2-3,0.5-4.5
	c0.2-0.7,0.4-1.5,0.7-2.2c0.1-0.3,0.3-0.7,0.4-1l0.4-1c0.2-0.3,0.3-0.6,0.5-1c0.2-0.3,0.3-0.6,0.5-0.9c0.3-0.6,0.7-1.2,1.1-1.8
	c1.5-2.4,3.3-4.6,5.4-6.5c1-1,2.1-1.9,3.2-2.7c0.6-0.4,1.1-0.8,1.7-1.2c0.6-0.4,1.2-0.7,1.8-1c-0.5,0.5-1,0.9-1.5,1.4
	c-0.5,0.5-0.9,1-1.4,1.5c-0.9,1-1.7,2.1-2.5,3.1c-1.6,2.1-3,4.4-4.1,6.8c-0.3,0.6-0.5,1.2-0.8,1.8c-0.1,0.3-0.3,0.6-0.4,0.9
	c-0.1,0.3-0.2,0.6-0.3,0.9l-0.3,0.9c-0.1,0.3-0.2,0.6-0.3,0.9c-0.2,0.6-0.3,1.2-0.4,1.8c-0.2,1.2-0.3,2.4-0.2,3.7
	c0,1.2,0.2,2.5,0.4,3.8c0.2,1.3,0.5,2.5,0.9,3.8c0.3,1.3,0.7,2.6,1.1,3.8l1.2,3.9c0.4,1.3,0.8,2.6,1.2,4c0.7,2.7,1.3,5.5,1.6,8.4
	c0.3,2.9,0.3,5.9-0.3,8.8c-0.5,2.9-1.6,5.8-3,8.3c-1.4,2.6-3.2,4.9-5.2,7c-1,1-2,2-3.1,2.9c-1,0.9-2,1.8-3,2.7c-2,1.8-4,3.6-5.8,5.5
	c-0.9,0.9-1.8,1.9-2.7,2.9c-0.9,1-1.7,2-2.3,3.1c-0.3,0.5-0.7,1.1-0.9,1.6c-0.3,0.5-0.5,1.1-0.6,1.6c-0.1,0.5-0.1,0.9,0,1.3
	c0.1,0.3,0.4,0.7,0.8,0.9c0.4,0.3,1,0.5,1.6,0.6c0.6,0.2,1.2,0.3,1.9,0.3c1.3,0.1,2.6,0.2,4,0.1c1.3,0,2.7-0.2,4-0.3
	C44,110.8,45.3,110.6,46.7,110.4z"/>
<path class="st5" d="M130.9,69.1c-0.4-21.7-11.7-40.7-28.8-51.6H34.7C17.7,28.4,6.3,47.4,5.9,69.1h0c0,34.5,28,62.5,62.5,62.5
	S130.9,103.6,130.9,69.1L130.9,69.1z"/>
<g>
	<g>
		<defs>
			<circle id="SVGID_5_" cx="67.1" cy="71.1" r="63.6"/>
		</defs>
		<clipPath id="SVGID_2_">
			<use xlink:href="#SVGID_5_"  style="overflow:visible;"/>
		</clipPath>
		<path class="st6" d="M59.4,148.5c-0.1-1,1.4-6.4,2.7-8c1.3-1.6,1.9-3.5,2.5-7.5c0.9-6,0-9.1,0.9-11.8c0.9-2.7,1.1-3.9,2-6
			c0.9-2.1,0-3.9,2.7-3.3c2.7,0.5,4.7,3.2,8.4,4.2c3.2,0.8,4.4,2,3.5,4.3c-0.5,1.5-2.1,5-2.6,6.4c-1.5,4.7-6,5.6-4.7,7.6
			c3.7,5.8,10.7,11.7,11.8,12.6c1.4,1.2,5.6-2.1,5.4-2.9c-2.4-6.6-9-9.5-7.6-10.6c4.1-3.3,6.9-6.3,11.1-11.1
			c1.7-1.9,3.6-5.2,3.3-7.3c-0.3-2.1-2-5.4-4.9-8.7c-2.6-3-5-5.1-7.7-7.3c-2.7-2.2-4.3-1.2-4.7-3.3c-0.4-2.2-0.6-5.5-1.3-6.7
			c-0.8-1.2-2-2.7-1.3-4.7c0.7-2,1.5-1.5,2-3.3c0.5-1.9,0.5-3.9,1.3-5.3c0.9-1.5,1.6-1.5,4,1.3c2.4,2.9,4.1,2.7,4.7,4.7
			c0.6,2-0.1,3.9,0.7,5.3c0.8,1.4,3.6,6.6,4,7.3c0.4,0.8,0.7,2.1,0.1,3.6c-0.6,1.3-1.7,2.1-1.2,3.2c0.4,1,1.9,1.8,2.3,2
			c0.7,0.3,0.6,0.6,1.5,1.2c3.2,2,5.4,0.7,6.1,0.2c2.2-1.5,0.3-3.9-0.1-6.1c-0.4-2.2-1.7-4.8-2-8c-0.3-3.2,0.1-6-1.3-8
			c-1.4-2-1.6-6-3.1-7.8c-1.5-1.8-2.2-2.9-2.4-5.5c-0.2-2.5-3-3.6-3.8-5.4c-0.7-1.7-1.5-3.1-4-4c-0.4-0.1-0.9-0.2-1.1-0.6
			c-0.5-0.8-1.5-1.7-3-1.6C81.9,57.9,83,57,80.9,57c-0.9,0-1-4.3-2-6.6c-3.1-6.8-0.5,2.1-4-0.8c-5.5-0.2-1.9-4.1-3.7,0.5
			c-0.1,0.2-1.3,1-1.3,1.2l-2.4-1.6c0,0.1-2,0.7-2,0.8L61.3,47c0.2,0.7,0.4,1.6-0.4,1.8c-0.3,0.1,2,2.8,1.5,2.9
			c-2.4,0.6-0.4,0.2-5.3,0.6c-1.7,0.1-4.1,0.5-5.5,0.9c-1.3,0.4-2.6,0.9-4.8,3.2c-2.3,2.2-3.3,3.4-5.4,3.7c-2.1,0.3-4.3,1.4-7.4,3.3
			c-3.1,1.9-6.6,3.6-7.2,3.3c-0.5-0.2-1.5,0.8-1.9,1.2c-0.1,0.1-0.2,0.2-0.4,0.3c-0.4,0.2-1.2,0.6-2.5,1.2c-1.8,0.9-3.4,0.7-3.3,2
			c0.1,1.3-0.2,2.3,0.7,4c0.9,1.7,2.5,3.6,4,4s4.4,1.4,4.7-0.7c0.3-2.3,0.8-3.6,2.7-4c2.3-0.5,2.7-1.1,4.5-2.4
			c2.2-1.6,5.1-1.1,6.3-1.8c0,0,3.4-0.1,4.3-0.7c1.1-0.7,1.3-0.3,1.4,0.5l-2.6,5.6c-0.7,1.6-3.9,9.5-3.9,9.5c-2.3,5.2-0.9,6,2.7,7.9
			l1.3,0.6c0.6,0.3,0.9,1.1,0.6,1.7c-0.3,0.6-0.5,1.5-0.6,3c-0.1,3.3,0.1,10.5,0.7,13.3c0.6,2.9,1.4,9.2,2,12
			c0.6,2.7,1.6,7.4,1.3,10.6c-0.3,3.2-2.2,6.3-2,9.3c0.2,2.5,0.1,6.5,0.8,8.4c3.4,1.1,6.9,2,10.5,2.6
			C58.7,152.6,59.5,149.3,59.4,148.5z"/>
		<path class="st7" d="M82.8,36.1c0,0,6,1.7,4.4,9c0,0,0.5,0.6-0.1,1.3c0,0-0.4,0.9-0.8,1.3c0,0,0.8,1.3,0.8,2.7
			c0,0,0.6,0.8,0.2,1.7c0,0,0.1,1.6-0.6,2.6c0,0-0.5,2-1.9,2.6c0,0-1.7,0.4-2.1,0c0,0-0.4-0.2-0.7-0.1c-0.3,0.1-0.8,0.2-1,0.4
			c-0.2,0.2-0.6,0.3-0.9,0.4c-0.3,0.1-1.7,0.4-2.3,0.4c-0.6,0-1.2,0.8-1.2,0.8s-1.8,0.5-2.1,0.5c-0.2,0-0.5-0.4-0.5-0.4
			S73,59,73.2,58.4c0,0-4.2-1.8-5.3-2.4l-1-0.2c0,0-0.9,0.5-1.4-0.1c0,0-7.7-5.6-7.2-11.2c0,0,0.4-0.7,0.5-1
			c0.1-0.3-0.2-0.6-0.8-1.2c0,0-0.1-0.9,0.5-1.5c0,0,1-0.9,2.7-0.8l1.4-4.1c0,0-0.2-2-0.1-3l1-0.7l3.6-1.8l1.1-0.3
			c0,0,0.5-0.8,1.3-1.1c0.9-0.3,1.9-0.6,2.6-0.7s2.2,0.1,2.9,0.4c0.7,0.3,4.1,3.1,4.6,3.7c0,0,1.6,1,2.6,2.5
			C82.2,34.8,82.7,35.6,82.8,36.1z"/>
		<path class="st8" d="M80.4,36.7c0,0-2.4,0.3-3.6,1c-1.2,0.7-2.5,2-2.9,4.5c0,0,2.7,1.1,0.4,3.5c0,0,0.6,1.8,2.1,2
			c0,0,2.5-1.1,4.6-1.3c2.1-0.2,3.6,0,4.3-0.6c0.7-0.6,1.6-2,1.2-4.2C86.1,39.5,84.9,36.7,80.4,36.7z"/>
		
			<ellipse transform="matrix(6.328404e-02 -0.998 0.998 6.328404e-02 26.4444 131.1887)" class="st8" cx="83.1" cy="51.5" rx="2.6" ry="2"/>
	</g>
	<path d="M80.6,33.8l-3.7-3.1c-0.5-0.4-0.6-1.3-0.2-1.8l0.2-0.2c0.4-0.5,1.3-0.6,1.8-0.2l3.7,3.1c0.5,0.4,0.6,1.3,0.2,1.8l-0.2,0.2
		C81.9,34.2,81.1,34.2,80.6,33.8z"/>
</g>
<polygon class="st0" points="125.3,45.1 124.1,41.6 126.5,38.7 130.1,39.4 131.4,42.9 129,45.7 "/>
<polygon class="st0" points="129.5,72.6 129.6,68.7 132.9,66.8 136.3,68.7 136.3,72.6 132.9,74.6 "/>
<polygon class="st0" points="124.6,97.6 125.8,94.1 129.4,93.3 131.9,96.1 130.7,99.7 127.1,100.4 "/>
</svg>
