<?xml version="1.0" encoding="utf-8"?>
<!-- Generator: Adobe Illustrator 17.0.0, SVG Export Plug-In . SVG Version: 6.00 Build 0)  -->
<!DOCTYPE svg PUBLIC "-//W3C//DTD SVG 1.1//EN" "http://www.w3.org/Graphics/SVG/1.1/DTD/svg11.dtd">
<svg version="1.1" id="Capa_1" xmlns="http://www.w3.org/2000/svg" xmlns:xlink="http://www.w3.org/1999/xlink" x="0px" y="0px"
	 width="620.667px" height="102.667px" viewBox="0 0 620.667 102.667" enable-background="new 0 0 620.667 102.667"
	 xml:space="preserve">
<g id="Capa_1_1_">
</g>
<g id="prueba">
	<path fill="#FFFFFF" d="M153.295,28.803V33.6h-16.791V13.53h16.803v4.626h-10.072v2.913h8.151v4.455h-8.151v3.28L153.295,28.803
		L153.295,28.803z"/>
	<path fill="#FFFFFF" d="M188.529,25.927l6.266,0.343c-0.294,2.46-1.309,4.345-3.035,5.654c-1.726,1.309-3.855,1.97-6.376,1.97
		c-3.035,0-5.483-0.906-7.343-2.705c-1.86-1.799-2.803-4.296-2.803-7.465c0-3.145,0.881-5.678,2.656-7.612
		c1.762-1.934,4.234-2.9,7.392-2.9c2.949,0,5.226,0.734,6.817,2.203s2.484,3.414,2.692,5.85l-6.4,0.306
		c0-1.346-0.281-2.313-0.857-2.913s-1.248-0.893-2.019-0.893c-2.154,0-3.243,1.946-3.243,5.85c0,2.191,0.281,3.671,0.844,4.455
		c0.563,0.783,1.346,1.175,2.362,1.175C187.293,29.256,188.308,28.143,188.529,25.927z"/>
	<path fill="#FFFFFF" d="M227.177,33.894c-3.145,0-5.703-0.93-7.673-2.802c-1.983-1.872-2.974-4.381-2.974-7.514
		c0-2.998,0.942-5.47,2.839-7.428s4.516-2.937,7.869-2.937c3.108,0,5.642,0.918,7.6,2.766c1.958,1.848,2.937,4.308,2.937,7.38
		c0,3.182-0.991,5.74-2.962,7.661C232.843,32.94,230.297,33.894,227.177,33.894z M227.14,29.342c1.15,0,1.983-0.453,2.497-1.358
		c0.502-0.906,0.759-2.57,0.759-4.981c0-3.488-1.04-5.238-3.121-5.238c-2.252,0-3.365,1.995-3.365,5.972
		C223.909,27.469,224.986,29.342,227.14,29.342z"/>
	<path fill="#FFFFFF" d="M258.591,27.788l6.364-1.028c0.538,1.615,1.909,2.423,4.124,2.423c1.726,0,2.582-0.416,2.582-1.236
		c0-0.428-0.196-0.771-0.6-1.004c-0.404-0.245-1.114-0.453-2.129-0.636c-3.916-0.673-6.425-1.554-7.539-2.643
		c-1.114-1.089-1.664-2.362-1.664-3.843c0-1.897,0.795-3.463,2.399-4.724c1.603-1.261,3.892-1.885,6.89-1.885
		c4.553,0,7.551,1.64,9.007,4.92l-5.678,1.542c-0.587-1.346-1.787-2.019-3.586-2.019c-1.493,0-2.24,0.416-2.24,1.248
		c0,0.367,0.171,0.661,0.502,0.869c0.343,0.208,0.991,0.404,1.958,0.587c2.668,0.514,4.565,0.955,5.691,1.346
		c1.126,0.392,2.056,1.065,2.815,2.007c0.747,0.942,1.126,2.056,1.126,3.341c0,2.032-0.918,3.671-2.754,4.932
		c-1.836,1.261-4.234,1.885-7.208,1.885C263.229,33.894,259.876,31.863,258.591,27.788z"/>
	<path fill="#FFFFFF" d="M318.276,28.803V33.6h-16.803V13.53h16.803v4.626h-10.072v2.913h8.151v4.455h-8.151v3.28L318.276,28.803
		L318.276,28.803z"/>
	<path fill="#FFFFFF" d="M361.096,33.588h-7.6l-3.255-7.673h-2.166v7.673h-6.853V13.53h11.663c2.57,0,4.577,0.538,5.997,1.628
		c1.42,1.077,2.129,2.509,2.129,4.283c0,1.15-0.257,2.178-0.783,3.06s-1.579,1.664-3.17,2.35L361.096,33.588z M348.076,21.62H351
		c0.857,0,1.554-0.159,2.08-0.49c0.526-0.318,0.783-0.796,0.783-1.432c0-1.285-0.881-1.921-2.631-1.921h-3.157L348.076,21.62
		L348.076,21.62z"/>
	<path fill="#FFFFFF" d="M403.379,13.53l-6.927,20.07h-6.988l-7.245-20.07h7.22l3.537,10.941c0.245,0.649,0.453,1.285,0.636,1.909
		l4.124-12.85H403.379z"/>
	<path fill="#FFFFFF" d="M432.518,13.53V33.6h-6.853V13.53H432.518z"/>
	<path fill="#FFFFFF" d="M468.926,25.927l6.266,0.343c-0.294,2.46-1.309,4.345-3.035,5.654c-1.726,1.309-3.855,1.97-6.376,1.97
		c-3.035,0-5.483-0.906-7.343-2.705c-1.86-1.799-2.802-4.296-2.802-7.465c0-3.145,0.881-5.678,2.656-7.612
		c1.762-1.934,4.234-2.9,7.392-2.9c2.949,0,5.226,0.734,6.817,2.203s2.484,3.414,2.692,5.85l-6.401,0.306
		c0-1.346-0.281-2.313-0.857-2.913c-0.575-0.6-1.248-0.893-2.019-0.893c-2.154,0-3.243,1.946-3.243,5.85
		c0,2.191,0.281,3.671,0.844,4.455c0.563,0.783,1.346,1.175,2.362,1.175C467.69,29.256,468.706,28.143,468.926,25.927z"/>
	<path fill="#FFFFFF" d="M504.784,13.53V33.6h-6.853V13.53H504.784z"/>
	<path fill="#FFFFFF" d="M538.549,33.894c-3.145,0-5.703-0.93-7.673-2.802c-1.983-1.872-2.974-4.381-2.974-7.514
		c0-2.998,0.942-5.47,2.839-7.428s4.516-2.937,7.869-2.937c3.108,0,5.642,0.918,7.6,2.766c1.958,1.848,2.937,4.308,2.937,7.38
		c0,3.182-0.991,5.74-2.962,7.661C544.214,32.94,541.669,33.894,538.549,33.894z M538.524,29.342c1.15,0,1.983-0.453,2.497-1.358
		c0.502-0.906,0.759-2.57,0.759-4.981c0-3.488-1.04-5.238-3.121-5.238c-2.252,0-3.365,1.995-3.365,5.972
		C535.281,27.469,536.357,29.342,538.524,29.342z"/>
	<path fill="#FFFFFF" d="M569.976,27.788l6.364-1.028c0.538,1.615,1.909,2.423,4.124,2.423c1.726,0,2.582-0.416,2.582-1.236
		c0-0.428-0.196-0.771-0.6-1.004c-0.404-0.245-1.114-0.453-2.129-0.636c-3.916-0.673-6.425-1.554-7.539-2.643
		c-1.114-1.089-1.664-2.362-1.664-3.843c0-1.897,0.795-3.463,2.399-4.724c1.603-1.261,3.892-1.885,6.89-1.885
		c4.553,0,7.551,1.64,9.007,4.92l-5.678,1.542c-0.587-1.346-1.787-2.019-3.586-2.019c-1.493,0-2.24,0.416-2.24,1.248
		c0,0.367,0.171,0.661,0.502,0.869c0.343,0.208,0.991,0.404,1.958,0.587c2.668,0.514,4.565,0.955,5.691,1.346
		c1.126,0.392,2.056,1.065,2.815,2.007c0.747,0.942,1.126,2.056,1.126,3.341c0,2.032-0.918,3.671-2.754,4.932
		c-1.836,1.261-4.234,1.885-7.208,1.885C574.602,33.894,571.248,31.863,569.976,27.788z"/>
	<g>
		<path fill="#FFFFFF" d="M113.828,53.402c-1.077-1.285-1.628-2.57-1.628-3.843s0.294-2.374,0.893-3.292
			c0.587-0.918,1.554-1.713,2.876-2.35c1.322-0.649,2.827-0.967,4.504-0.967h21.453c1.077,0,2.276-0.11,3.586-0.318
			c1.309-0.208,2.227-0.416,2.741-0.624v6.596l-0.526-0.049v-0.893c0-0.832-0.294-1.566-0.893-2.166
			c-0.587-0.612-1.285-0.93-2.093-0.967h-9.937v31.342c0.037,1.261,0.587,2.203,1.677,2.827c0.526,0.281,1.077,0.416,1.677,0.416
			h0.685v0.526h-11.455v-0.526h0.685c0.906,0,1.677-0.318,2.325-0.942c0.649-0.624,0.979-1.383,1.016-2.252V44.505h-10.941
			c-2.79,0-4.81,0.893-6.07,2.668c-0.661,0.906-0.991,1.86-0.991,2.851c0,0.991,0.281,2.031,0.832,3.108L113.828,53.402z"/>
		<path fill="#FFFFFF" d="M161.226,79.09c0.906,0,1.677-0.318,2.325-0.967c0.649-0.649,0.979-1.42,1.016-2.325v-29.31
			c0-0.832-0.33-1.542-0.991-2.117s-1.444-0.869-2.35-0.869h-0.624l-0.049-0.526h15.334c1.077,0,2.252-0.11,3.537-0.318
			c1.273-0.208,2.166-0.416,2.692-0.624v6.596h-0.526v-0.942c0-0.832-0.294-1.554-0.869-2.142c-0.575-0.587-1.261-0.906-2.068-0.942
			h-10.672V60.77h8.836c0.698-0.037,1.285-0.294,1.775-0.783c0.49-0.49,0.734-1.101,0.734-1.836v-0.734h0.526v8.261h-0.526v-0.783
			c0-0.698-0.233-1.285-0.71-1.775c-0.465-0.49-1.052-0.747-1.75-0.783h-8.897v15.64h7.477c2.582,0,4.553-0.575,5.911-1.726
			c1.358-1.15,2.497-2.864,3.402-5.128h0.526l-3.035,8.481h-21.71v-0.526h0.685v0.012H161.226z"/>
		<path fill="#FFFFFF" d="M209.199,44.603h-3.353v31.183c0,0.906,0.318,1.689,0.967,2.325c0.649,0.649,1.444,0.967,2.386,0.967
			h0.624l0.049,0.526h-11.443v-0.526h0.685c0.906,0,1.677-0.318,2.325-0.942c0.649-0.624,0.979-1.395,1.016-2.301V46.806
			c-0.037-0.906-0.379-1.677-1.016-2.325c-0.649-0.649-1.42-0.967-2.325-0.967h-0.685v-0.526h14.123c3.17,0,5.666,0.881,7.477,2.643
			s2.717,4.051,2.717,6.853s-0.869,5.226-2.594,7.269c-1.726,2.044-3.831,3.06-6.303,3.06c0.526,0.245,1.138,0.722,1.86,1.444
			c0.71,0.71,1.346,1.456,1.909,2.227c2.998,4.296,4.956,6.927,5.862,7.93c0.906,0.991,1.554,1.677,1.934,2.044
			c0.379,0.367,0.808,0.722,1.261,1.077s0.906,0.624,1.358,0.832c1.016,0.49,2.093,0.734,3.243,0.734v0.526H228.4
			c-1.505,0-2.9-0.269-4.185-0.808c-1.285-0.538-2.264-1.101-2.9-1.677c-0.649-0.575-1.199-1.138-1.677-1.677
			c-0.465-0.538-1.775-2.35-3.892-5.409c-2.129-3.072-3.365-4.822-3.72-5.262s-0.71-0.869-1.101-1.285
			c-1.114-1.187-2.227-1.775-3.353-1.775v-0.526c0.281,0.037,0.649,0.049,1.101,0.049s1.016-0.012,1.677-0.049
			c4.32-0.11,7.049-1.921,8.163-5.446c0.208-0.698,0.318-1.346,0.318-1.958s0-1.004,0-1.175c-0.073-2.337-0.685-4.222-1.836-5.654
			c-1.15-1.432-2.705-2.203-4.65-2.301C211.5,44.627,210.459,44.603,209.199,44.603z"/>
		<path fill="#FFFFFF" d="M251.261,44.603h-3.353v31.183c0,0.906,0.318,1.689,0.967,2.325c0.649,0.649,1.444,0.967,2.386,0.967
			h0.624l0.049,0.526h-11.455v-0.526h0.685c0.906,0,1.677-0.318,2.325-0.942s0.979-1.395,1.016-2.301V46.806
			c-0.037-0.906-0.379-1.677-1.016-2.325c-0.649-0.649-1.42-0.967-2.325-0.967h-0.685v-0.526h14.123c3.17,0,5.666,0.881,7.477,2.643
			s2.717,4.051,2.717,6.853s-0.869,5.226-2.594,7.269c-1.726,2.044-3.831,3.06-6.303,3.06c0.526,0.245,1.138,0.722,1.86,1.444
			c0.71,0.71,1.346,1.456,1.909,2.227c2.998,4.296,4.956,6.927,5.862,7.93c0.906,0.991,1.554,1.677,1.934,2.044
			c0.379,0.367,0.808,0.722,1.261,1.077c0.453,0.355,0.906,0.624,1.358,0.832c1.016,0.49,2.093,0.734,3.243,0.734v0.526h-2.876
			c-1.505,0-2.9-0.269-4.185-0.808c-1.285-0.538-2.264-1.101-2.9-1.677c-0.649-0.575-1.199-1.138-1.677-1.677
			c-0.465-0.538-1.775-2.35-3.892-5.409c-2.129-3.072-3.365-4.822-3.72-5.262s-0.71-0.869-1.101-1.285
			c-1.114-1.187-2.227-1.775-3.353-1.775v-0.526c0.281,0.037,0.649,0.049,1.101,0.049s1.016-0.012,1.677-0.049
			c4.32-0.11,7.049-1.921,8.163-5.446c0.208-0.698,0.318-1.346,0.318-1.958s0-1.004,0-1.175c-0.073-2.337-0.685-4.222-1.836-5.654
			c-1.15-1.432-2.705-2.203-4.65-2.301C253.562,44.627,252.522,44.603,251.261,44.603z"/>
		<path fill="#FFFFFF" d="M316.868,79.09h0.416v0.526h-11.773V79.09h0.465c0.734,0,1.285-0.233,1.652-0.71
			c0.367-0.465,0.551-0.918,0.551-1.334c0-0.416-0.073-0.832-0.208-1.26l-3.353-8.897h-14.123l-3.5,8.946
			c-0.135,0.416-0.208,0.832-0.208,1.224c0,0.404,0.184,0.832,0.551,1.309c0.367,0.465,0.918,0.71,1.652,0.71h0.465v0.526h-10.512
			v-0.526h0.465c0.869,0,1.726-0.281,2.558-0.832c0.832-0.563,1.518-1.383,2.044-2.46l11.822-28.147
			c1.285-2.827,1.934-4.626,1.934-5.385h0.465l14.025,33.532c0.49,1.077,1.15,1.897,1.983,2.46
			C315.094,78.808,315.962,79.09,316.868,79.09z M291.133,65.322h12.874l-6.29-16.791L291.133,65.322z"/>
		<path fill="#FFFFFF" d="M390.798,86.751c-0.869,0.918-2.117,1.836-3.745,2.717c-1.628,0.893-3.243,1.554-4.871,1.983
			c-1.628,0.441-3.06,0.649-4.32,0.649c-4.051,0-7.881-0.783-11.504-2.35c-1.322-0.587-3.5-1.677-6.535-3.243
			c-6.866-3.525-12.018-5.593-15.432-6.229c-5.581-0.281-10.096-2.142-13.548-5.593c-3.451-3.451-5.177-7.967-5.177-13.548
			s1.86-10.121,5.568-13.633c3.72-3.5,8.554-5.262,14.514-5.262c5.96,0,10.806,1.75,14.539,5.262c3.733,3.5,5.593,8.102,5.593,13.78
			c0,4.993-1.456,9.154-4.369,12.507s-6.792,5.421-11.638,6.229c3.659,1.114,9.289,3.292,16.901,6.535
			c3.696,1.53,7.465,2.301,11.296,2.301c2.166,0,4.345-0.257,6.535-0.783c3.072-0.808,5.63-2.166,7.686-4.075l0.208,0.257
			C392.242,85.001,391.668,85.82,390.798,86.751z M334.112,48.641c-2.949,3.206-4.418,7.428-4.418,12.666s1.469,9.448,4.418,12.666
			c2.949,3.206,6.829,4.81,11.638,4.81c4.81,0,8.689-1.603,11.638-4.81c2.949-3.206,4.418-7.428,4.418-12.666
			s-1.469-9.448-4.418-12.666c-2.949-3.206-6.829-4.81-11.638-4.81C340.928,43.819,337.049,45.423,334.112,48.641z"/>
		<path fill="#FFFFFF" d="M414.284,43.514h-0.832c-0.734,0-1.371,0.233-1.909,0.71c-0.538,0.465-0.832,1.052-0.869,1.75v20.719
			c0,4.075-1.285,7.38-3.867,9.888c-2.582,2.509-6.021,3.769-10.304,3.769c-4.296,0-7.771-1.248-10.439-3.745
			s-4.002-5.776-4.002-9.864V46.12c0-1.04-0.453-1.811-1.358-2.301c-0.416-0.208-0.893-0.318-1.407-0.318h-0.832v-0.526h10.623
			v0.526h-0.832c-0.771,0-1.407,0.233-1.934,0.71s-0.808,1.077-0.832,1.799v19.985c0,3.806,1.016,6.866,3.06,9.203
			s4.773,3.5,8.187,3.5s6.192-1.101,8.322-3.317c2.129-2.215,3.194-5.115,3.194-8.713V46.022c-0.037-0.734-0.318-1.334-0.832-1.799
			s-1.175-0.71-1.934-0.71h-0.832v-0.526h9.68v0.526h-0.051V43.514z"/>
		<path fill="#FFFFFF" d="M460.74,79.09h0.416v0.526h-11.773V79.09h0.465c0.734,0,1.285-0.233,1.652-0.71
			c0.367-0.465,0.551-0.918,0.551-1.334c0-0.416-0.073-0.832-0.208-1.26l-3.353-8.897h-14.11l-3.5,8.946
			c-0.135,0.416-0.208,0.832-0.208,1.224c0,0.404,0.184,0.832,0.551,1.309c0.367,0.465,0.918,0.71,1.652,0.71h0.465v0.526h-10.512
			v-0.526h0.465c0.869,0,1.726-0.281,2.558-0.832c0.832-0.563,1.517-1.383,2.044-2.46l11.822-28.147
			c1.285-2.827,1.934-4.626,1.934-5.385h0.465l14.025,33.532c0.49,1.077,1.15,1.897,1.983,2.46
			C458.965,78.808,459.833,79.09,460.74,79.09z M435.003,65.322h12.874l-6.29-16.791L435.003,65.322z"/>
		<path fill="#FFFFFF" d="M495.898,47.638c0-0.832-0.294-1.566-0.893-2.166c-0.587-0.612-1.285-0.93-2.093-0.967h-9.937v31.342
			c0.037,0.906,0.379,1.677,1.016,2.301c0.649,0.624,1.42,0.942,2.325,0.942h0.685v0.526h-11.455V79.09h0.685
			c0.906,0,1.677-0.318,2.325-0.942s0.979-1.383,1.016-2.252V44.505h-9.937c-0.832,0.037-1.542,0.355-2.117,0.967
			s-0.869,1.334-0.869,2.166v0.893l-0.526,0.049v-6.596c0.526,0.208,1.432,0.416,2.717,0.624s2.472,0.318,3.561,0.318h17.684
			c1.713,0,3.133-0.135,4.259-0.392c1.138-0.257,1.823-0.441,2.068-0.551v6.596l-0.526-0.049v-0.893h0.012V47.638z"/>
		<path fill="#FFFFFF" d="M509.447,79.09c0.906,0,1.677-0.318,2.325-0.967c0.648-0.649,0.979-1.42,1.016-2.325V46.757
			c-0.037-0.906-0.379-1.677-1.016-2.301c-0.649-0.624-1.42-0.942-2.325-0.942h-0.685v-0.526h11.455v0.526h-0.685
			c-0.906,0-1.689,0.318-2.325,0.942c-0.649,0.624-0.991,1.395-1.016,2.301v29.041c0,0.906,0.33,1.689,0.991,2.325
			c0.661,0.649,1.444,0.967,2.35,0.967h0.685v0.526h-11.455V79.09H509.447z"/>
		<path fill="#FFFFFF" d="M538.829,75.051c-3.476-3.488-5.201-8.077-5.201-13.78s1.738-10.292,5.201-13.78
			c3.476-3.488,8.065-5.226,13.78-5.226c4.675,0,8.811,1.187,12.397,3.561l1.04,7.38h-0.465c-0.771-2.998-2.325-5.311-4.65-6.927
			c-2.337-1.628-5.115-2.435-8.322-2.435c-4.565,0-8.224,1.591-10.965,4.761c-2.741,3.17-4.112,7.38-4.112,12.605
			s1.346,9.448,4.051,12.63c2.705,3.194,6.266,4.834,10.696,4.944c3.904,0,7.172-1.065,9.778-3.194
			c2.827-2.301,4.528-6.046,5.128-11.247h0.416l-0.624,8.212c-3.17,5.201-8.077,7.796-14.698,7.796
			C546.784,80.301,542.294,78.539,538.829,75.051z"/>
		<path fill="#FFFFFF" d="M615.917,79.09h0.416v0.526H604.56V79.09h0.465c0.734,0,1.285-0.233,1.652-0.71
			c0.367-0.465,0.551-0.918,0.551-1.334c0-0.416-0.073-0.832-0.208-1.26l-3.353-8.897h-14.123l-3.5,8.946
			c-0.135,0.416-0.208,0.832-0.208,1.224c0,0.404,0.184,0.832,0.551,1.309c0.367,0.465,0.918,0.71,1.652,0.71h0.465v0.526h-10.513
			v-0.526h0.465c0.869,0,1.726-0.281,2.558-0.832c0.832-0.563,1.518-1.383,2.044-2.46l11.822-28.147
			c1.285-2.827,1.934-4.626,1.934-5.385h0.465l14.025,33.532c0.49,1.077,1.15,1.897,1.983,2.46
			C614.13,78.808,615.011,79.09,615.917,79.09z M590.169,65.322h12.874l-6.278-16.791L590.169,65.322z"/>
	</g>
	<path fill="#FFFFFF" d="M448.844,31.655c0.11,1.664-3.622,6.303-5.005,8.665c1.297-1.114,6.719-4.822,7.759-3.659
		C450.435,34.568,448.844,31.655,448.844,31.655z"/>
	<circle fill="#383737" cx="51.634" cy="52.386" r="47.3"/>
	<g>
		<circle fill="#1C1C1C" cx="49.223" cy="53.145" r="42.368"/>
		<path d="M91.958,53.145c-0.024,5.593-0.918,11.186-2.729,16.57c-0.906,2.692-2.044,5.336-3.439,7.857
			c-1.395,2.533-3.047,4.944-4.944,7.184c-3.794,4.467-8.665,8.151-14.147,10.537c-2.741,1.199-5.617,2.08-8.554,2.631
			s-5.935,0.771-8.909,0.649s-5.923-0.563-8.775-1.322c-2.851-0.747-5.605-1.799-8.212-3.096c-0.33-0.147-0.649-0.33-0.967-0.502
			l-0.967-0.514l-0.245-0.122l-0.233-0.135l-0.465-0.281l-0.93-0.551l-0.233-0.135l-0.233-0.147l-0.453-0.294l-0.906-0.587
			c-0.147-0.098-0.294-0.196-0.441-0.306l-0.441-0.318l-0.881-0.624c-2.301-1.713-4.455-3.622-6.425-5.678
			c-1.97-2.068-3.757-4.283-5.348-6.645c-1.591-2.362-2.974-4.858-4.136-7.465c-2.325-5.238-3.757-10.904-4.1-16.705
			c-0.171-2.9-0.061-5.838,0.355-8.75l0.037-0.269l0.049-0.269l0.098-0.538l0.196-1.089c0.061-0.367,0.147-0.722,0.233-1.077
			l0.245-1.077C6.131,39.71,6.254,39.367,6.352,39l0.306-1.065c0.098-0.355,0.233-0.71,0.343-1.052l0.367-1.052
			c1.016-2.79,2.337-5.483,3.941-8.004c1.603-2.521,3.451-4.895,5.519-7.061s4.357-4.136,6.829-5.874
			c2.472-1.726,5.116-3.219,7.894-4.418c5.556-2.411,11.638-3.647,17.684-3.586s12.103,1.358,17.574,3.855
			c5.483,2.497,10.317,6.241,14.11,10.745c1.897,2.252,3.537,4.675,4.932,7.22c1.395,2.533,2.533,5.177,3.439,7.881
			C91.089,41.947,91.971,47.552,91.958,53.145z M91.224,53.145c-0.012-2.754-0.343-5.495-0.967-8.163
			c-0.636-2.668-1.579-5.25-2.79-7.673c-1.212-2.423-2.705-4.699-4.393-6.768c-1.689-2.068-3.586-3.953-5.605-5.63
			c-4.063-3.341-8.616-5.886-13.376-7.624c-2.386-0.869-4.834-1.542-7.318-1.97l-0.93-0.147l-0.465-0.073l-0.233-0.037
			c-0.073-0.012-0.159-0.012-0.233-0.024c-0.624-0.061-1.248-0.147-1.885-0.196l-1.885-0.11l-1.885-0.024
			c-0.624,0.024-1.261,0.049-1.885,0.061c-0.624,0.037-1.248,0.098-1.885,0.147c-0.159,0.012-0.318,0.037-0.465,0.049l-0.465,0.061
			l-0.93,0.122c-0.073,0.012-0.159,0.012-0.233,0.024l-0.233,0.037l-0.465,0.086l-0.93,0.159c-2.472,0.477-4.895,1.175-7.233,2.093
			c-4.687,1.836-9.056,4.577-12.764,8.089c-1.848,1.75-3.525,3.696-5.018,5.776c-1.481,2.08-2.79,4.308-3.904,6.645l-0.392,0.881
			c-0.135,0.294-0.281,0.587-0.392,0.893l-0.355,0.906c-0.122,0.306-0.245,0.6-0.343,0.906l-0.318,0.918
			c-0.098,0.306-0.22,0.612-0.306,0.93l-0.281,0.942l-0.135,0.465l-0.073,0.233l-0.061,0.233c-0.661,2.521-1.101,5.128-1.273,7.783
			c-0.159,2.643-0.073,5.324,0.318,7.967c0.379,2.643,1.065,5.262,2.032,7.771c1.921,5.03,4.981,9.656,8.885,13.376
			c1.958,1.86,4.112,3.488,6.425,4.859c0.587,0.33,1.163,0.673,1.75,0.979l0.893,0.441l0.453,0.22l0.22,0.11l0.233,0.098
			l0.918,0.392l0.453,0.196l0.233,0.098l0.233,0.086l0.93,0.343c0.318,0.11,0.612,0.245,0.942,0.33
			c2.509,0.832,5.091,1.395,7.673,1.726c2.594,0.318,5.189,0.416,7.759,0.294c5.152-0.245,10.194-1.309,14.967-3.157
			c4.761-1.86,9.289-4.467,13.339-7.832c2.019-1.689,3.904-3.574,5.593-5.654s3.182-4.357,4.393-6.78
			c1.224-2.435,2.154-5.018,2.778-7.685C90.918,58.64,91.236,55.886,91.224,53.145z"/>
	</g>
	<g>
		<path fill="#29B8FF" d="M48.88,12.502c-14.355,0.233-26.924,7.771-34.169,19.067v44.595C21.956,87.46,34.524,94.998,48.88,95.231
			v0.012c22.848,0,41.377-18.528,41.377-41.377C90.257,31.018,71.729,12.49,48.88,12.502L48.88,12.502z"/>
		<path fill="#21F275" d="M8.201,53.867c0,22.016,17.305,41.034,37.865,41.377c0,0,2.582-29.885,0-38.795
			c-4.039-13.939-11.394-22.946-8.31-31.66c3.537-9.974,9.215-12.287,9.215-12.287C18.579,12.49,8.201,35.106,8.201,53.867z"/>
	</g>
	<g>
		<path d="M35.529,80.264c-1.775,0.649-3.598,1.175-5.495,1.505c-0.942,0.171-1.909,0.281-2.9,0.294
			c-0.49,0-1.004-0.012-1.518-0.086c-0.514-0.073-1.04-0.196-1.579-0.453c-0.269-0.135-0.526-0.294-0.771-0.514
			s-0.465-0.49-0.612-0.795c-0.159-0.306-0.257-0.636-0.306-0.955c-0.049-0.318-0.049-0.636-0.012-0.93
			c0.061-0.587,0.22-1.126,0.404-1.615c0.184-0.502,0.416-0.967,0.649-1.407c0.49-0.893,1.04-1.713,1.615-2.497
			c0.575-0.783,1.199-1.53,1.823-2.264c1.261-1.456,2.594-2.827,3.953-4.173c0.685-0.673,1.371-1.322,2.068-1.958
			c0.673-0.612,1.297-1.236,1.897-1.897c2.411-2.607,4.198-5.691,4.797-9.056c0.147-0.844,0.245-1.701,0.269-2.558
			c0.024-0.869,0-1.738-0.086-2.619c-0.171-1.75-0.526-3.525-0.967-5.299c-0.22-0.893-0.465-1.775-0.722-2.68l-0.759-2.717
			c-0.257-0.918-0.502-1.848-0.722-2.79c-0.22-0.942-0.404-1.909-0.551-2.888c-0.135-0.979-0.22-1.995-0.208-3.011
			c0.012-1.028,0.122-2.056,0.367-3.084c0.122-0.502,0.269-1.016,0.453-1.493c0.098-0.233,0.184-0.465,0.281-0.685l0.306-0.673
			c0.11-0.22,0.22-0.441,0.33-0.661s0.233-0.441,0.343-0.649c0.245-0.428,0.49-0.857,0.759-1.261
			c1.052-1.652,2.313-3.157,3.708-4.479c0.698-0.661,1.432-1.285,2.203-1.86c0.379-0.281,0.771-0.563,1.175-0.808
			c0.404-0.257,0.808-0.502,1.236-0.71c-0.355,0.318-0.685,0.649-1.016,0.979c-0.33,0.343-0.649,0.685-0.955,1.028
			c-0.624,0.698-1.199,1.42-1.75,2.166c-1.101,1.481-2.056,3.047-2.839,4.675c-0.196,0.404-0.379,0.82-0.551,1.236
			c-0.086,0.208-0.171,0.416-0.257,0.624c-0.073,0.208-0.159,0.416-0.233,0.624l-0.22,0.636c-0.061,0.208-0.122,0.428-0.196,0.636
			c-0.135,0.404-0.233,0.808-0.306,1.212c-0.147,0.82-0.196,1.664-0.171,2.521c0.024,0.857,0.135,1.726,0.281,2.607
			c0.159,0.869,0.367,1.75,0.6,2.631c0.233,0.881,0.49,1.762,0.771,2.656l0.832,2.692c0.269,0.906,0.538,1.823,0.795,2.754
			c0.502,1.86,0.93,3.782,1.126,5.776c0.196,1.983,0.184,4.039-0.208,6.058c-0.379,2.019-1.089,3.977-2.08,5.752
			c-0.991,1.775-2.24,3.378-3.61,4.81c-0.685,0.722-1.407,1.395-2.142,2.032c-0.71,0.6-1.395,1.224-2.093,1.836
			c-1.383,1.236-2.729,2.509-4.026,3.806c-0.649,0.661-1.261,1.322-1.848,2.007s-1.15,1.395-1.628,2.117
			c-0.245,0.367-0.453,0.734-0.636,1.101c-0.184,0.367-0.318,0.734-0.379,1.077c-0.061,0.343-0.061,0.636,0.024,0.869
			c0.086,0.233,0.269,0.465,0.575,0.649c0.294,0.196,0.673,0.343,1.089,0.453c0.404,0.11,0.844,0.184,1.285,0.233
			c0.893,0.098,1.811,0.11,2.741,0.073c0.93-0.037,1.86-0.11,2.79-0.208C33.669,80.546,34.599,80.411,35.529,80.264z"/>
	</g>
	<path fill="none" d="M93.672,51.738c-0.245-14.979-8.114-28.099-19.887-35.649H27.256C15.483,23.651,7.614,36.77,7.369,51.738
		H7.357c0,23.84,19.324,43.164,43.164,43.164S93.672,75.577,93.672,51.738L93.672,51.738z"/>
	<g>
		<g>
			<g>
				<g>
					<defs>
						<circle id="SVGID_1_" cx="49.59" cy="53.145" r="43.922"/>
					</defs>
					<clipPath id="SVGID_2_">
						<use xlink:href="#SVGID_1_"  overflow="visible"/>
					</clipPath>
					<path clip-path="url(#SVGID_2_)" d="M44.303,106.601c-0.073-0.71,0.955-4.418,1.836-5.519c0.893-1.089,1.322-2.448,1.701-5.189
						c0.587-4.124,0-6.278,0.587-8.138s0.771-2.717,1.383-4.136c0.612-1.42-0.037-2.668,1.836-2.301
						c1.872,0.367,3.268,2.227,5.813,2.888c2.203,0.563,3.035,1.358,2.448,2.949c-0.367,1.004-1.456,3.463-1.762,4.43
						c-1.052,3.28-4.149,3.879-3.28,5.262c2.533,4.026,7.416,8.102,8.138,8.701c0.967,0.808,3.879-1.481,3.696-1.995
						c-1.628-4.565-6.217-6.535-5.275-7.294c2.827-2.264,4.736-4.357,7.685-7.637c1.163-1.297,2.509-3.586,2.313-5.018
						c-0.196-1.42-1.383-3.745-3.402-6.021c-1.823-2.068-3.476-3.525-5.336-5.018c-1.86-1.493-2.974-0.808-3.219-2.301
						c-0.245-1.493-0.392-3.806-0.918-4.602s-1.42-1.836-0.918-3.219c0.49-1.383,1.065-1.016,1.383-2.301s0.318-2.68,0.918-3.671
						c0.6-1.004,1.126-1.065,2.754,0.918c1.64,1.983,2.803,1.86,3.219,3.219c0.416,1.358-0.098,2.692,0.465,3.671
						c0.563,0.979,2.46,4.528,2.754,5.054s0.502,1.456,0.037,2.448c-0.416,0.906-1.187,1.456-0.82,2.24
						c0.294,0.661,1.334,1.248,1.579,1.371c0.477,0.245,0.416,0.392,1.065,0.795c2.215,1.383,3.696,0.465,4.198,0.11
						c1.493-1.065,0.196-2.692-0.086-4.222c-0.269-1.53-1.187-3.304-1.383-5.519s0.061-4.112-0.918-5.519
						c-0.979-1.395-1.077-4.124-2.142-5.372c-1.052-1.236-1.518-2.032-1.677-3.769c-0.159-1.75-2.08-2.509-2.619-3.733
						c-0.514-1.163-1.016-2.166-2.741-2.778c-0.281-0.098-0.587-0.147-0.759-0.404c-0.367-0.538-1.052-1.163-2.08-1.077
						c-0.906,0.073-0.184-0.6-1.628-0.6c-0.649,0-0.673-2.937-1.407-4.528c-2.129-4.687-0.355,1.456-2.778-0.575
						c-3.782-0.147-1.334-2.802-2.582,0.318c-0.049,0.11-0.93,0.698-0.93,0.808l-1.652-1.089c0,0.098-1.407,0.453-1.371,0.551
						l-2.803-2.35c0.171,0.502,0.257,1.089-0.257,1.212c-0.233,0.061,1.395,1.934,1.028,2.032c-1.652,0.404-0.269,0.159-3.647,0.392
						c-1.163,0.073-2.851,0.318-3.769,0.6c-0.918,0.294-1.762,0.636-3.317,2.191c-1.554,1.554-2.301,2.325-3.757,2.546
						c-1.456,0.233-2.986,0.979-5.128,2.289s-4.54,2.472-4.981,2.313c-0.355-0.135-1.028,0.538-1.285,0.808
						c-0.073,0.073-0.159,0.135-0.245,0.184c-0.245,0.122-0.808,0.416-1.689,0.844c-1.224,0.6-2.374,0.465-2.301,1.383
						s-0.147,1.603,0.465,2.754c0.612,1.163,1.701,2.46,2.754,2.754c1.052,0.294,3.047,0.942,3.219-0.465
						c0.196-1.579,0.538-2.497,1.836-2.754c1.615-0.318,1.872-0.747,3.108-1.652c1.505-1.089,3.488-0.783,4.357-1.248
						c0.024-0.012,2.35-0.086,2.986-0.502c0.734-0.477,0.906-0.184,0.942,0.33l-1.811,3.879c-0.477,1.114-2.692,6.56-2.705,6.584
						c-1.615,3.561-0.636,4.112,1.848,5.458l0.893,0.441c0.441,0.22,0.612,0.746,0.416,1.187c-0.196,0.416-0.367,1.065-0.392,2.044
						c-0.061,2.264,0.073,7.22,0.465,9.191c0.379,1.97,0.979,6.376,1.383,8.273c0.404,1.897,1.138,5.115,0.918,7.355
						s-1.542,4.332-1.383,6.437c0.135,1.701,0.098,4.491,0.526,5.801c2.337,0.783,4.761,1.383,7.245,1.787
						C43.826,109.44,44.352,107.139,44.303,106.601z"/>
				</g>
			</g>
			<g>
				<g>
					<defs>
						<circle id="SVGID_3_" cx="49.59" cy="53.145" r="43.922"/>
					</defs>
					<clipPath id="SVGID_4_">
						<use xlink:href="#SVGID_3_"  overflow="visible"/>
					</clipPath>
					<path clip-path="url(#SVGID_4_)" d="M60.445,28.963c0,0,4.124,1.163,3.011,6.18c0,0,0.343,0.441-0.098,0.906
						c0,0-0.269,0.636-0.563,0.918c0,0,0.563,0.881,0.563,1.897c0,0,0.428,0.526,0.159,1.15c0,0,0.098,1.138-0.428,1.787
						c0,0-0.343,1.346-1.334,1.775c0,0-1.187,0.269-1.456,0c0,0-0.257-0.159-0.49-0.073s-0.575,0.135-0.698,0.269
						c-0.122,0.135-0.404,0.208-0.612,0.281s-1.175,0.306-1.603,0.306c-0.441,0-0.808,0.538-0.808,0.538s-1.273,0.33-1.432,0.318
						s-0.343-0.294-0.343-0.294s-0.612-0.159-0.465-0.575c0,0-2.9-1.248-3.659-1.689l-0.722-0.135c0,0-0.624,0.367-0.955-0.061
						c0,0-5.311-3.892-5.005-7.722c0,0,0.281-0.465,0.318-0.71c0.037-0.245-0.171-0.416-0.538-0.857c0,0-0.098-0.649,0.343-1.065
						c0,0,0.685-0.636,1.848-0.563l0.955-2.839c0,0-0.11-1.407-0.049-2.093l0.71-0.453l2.484-1.248l0.783-0.171
						c0,0,0.318-0.551,0.906-0.759c0.6-0.208,1.322-0.428,1.799-0.477s1.505,0.073,1.983,0.306c0.477,0.233,2.864,2.166,3.194,2.57
						c0,0,1.114,0.722,1.799,1.701C60.054,28.069,60.396,28.608,60.445,28.963z"/>
				</g>
			</g>
			<g>
				<g>
					<defs>
						<circle id="SVGID_5_" cx="49.59" cy="53.145" r="43.922"/>
					</defs>
					<clipPath id="SVGID_6_">
						<use xlink:href="#SVGID_5_"  overflow="visible"/>
					</clipPath>
					<path clip-path="url(#SVGID_6_)" fill="#21F275" d="M58.83,29.415c0,0-1.64,0.233-2.448,0.71
						c-0.82,0.477-1.762,1.358-2.007,3.096c0,0,1.848,0.734,0.257,2.423c0,0,0.416,1.26,1.456,1.407c0,0,1.713-0.734,3.145-0.893
						s2.521,0.012,2.974-0.404c0.465-0.416,1.126-1.395,0.82-2.9C62.709,31.349,61.938,29.415,58.83,29.415z"/>
				</g>
			</g>
			<g>
				<g>
					<defs>
						<circle id="SVGID_7_" cx="48.661" cy="26.906" r="43.923"/>
					</defs>
					<clipPath id="SVGID_8_">
						<use xlink:href="#SVGID_7_"  overflow="visible"/>
					</clipPath>
					
						<ellipse transform="matrix(-0.0633 0.998 -0.998 -0.0633 104.0626 -18.4427)" clip-path="url(#SVGID_8_)" fill="#21F275" cx="60.686" cy="39.614" rx="1.775" ry="1.395"/>
				</g>
			</g>
		</g>
		<path d="M58.867,27.31l-2.423-1.983c-0.416-0.343-0.477-0.955-0.135-1.371l0,0c0.343-0.416,0.955-0.477,1.371-0.135l2.423,1.983
			c0.416,0.343,0.477,0.955,0.135,1.371l0,0C59.895,27.592,59.283,27.653,58.867,27.31z"/>
	</g>
	<polygon fill="#FFFFFF" points="89.829,35.167 88.96,32.744 90.624,30.786 93.158,31.251 94.014,33.662 92.35,35.62 	"/>
	<polygon fill="#FFFFFF" points="92.742,54.161 92.754,51.468 95.104,50.147 97.417,51.505 97.404,54.197 95.067,55.531 	"/>
	<polygon fill="#FFFFFF" points="89.327,71.453 90.159,69.018 92.68,68.504 94.382,70.437 93.562,72.873 91.041,73.387 	"/>
</g>
</svg>
